<?xml version="1.0" encoding="UTF-8"?>
<svg width="1900px" height="1256px" viewBox="0 0 1900 1256" version="1.1" xmlns="http://www.w3.org/2000/svg" xmlns:xlink="http://www.w3.org/1999/xlink">
    <!-- Generator: Sketch 55.2 (78181) - https://sketchapp.com -->
    <title>Group 3</title>
    <desc>Created with Sketch.</desc>
    <defs>
        <linearGradient x1="137.027653%" y1="145.674261%" x2="21.4298127%" y2="40.7720041%" id="linearGradient-1">
            <stop stop-color="#FA6400" offset="0%"></stop>
            <stop stop-color="#E8393E" offset="100%"></stop>
        </linearGradient>
        <linearGradient x1="4.35940993%" y1="23.6773839%" x2="52.1395056%" y2="51.6544506%" id="linearGradient-2">
            <stop stop-color="#487BFA" offset="0%"></stop>
            <stop stop-color="#373994" offset="100%"></stop>
        </linearGradient>
        <linearGradient x1="8.64085591%" y1="-113.395556%" x2="60.1521937%" y2="77.2078982%" id="linearGradient-3">
            <stop stop-color="#FA6400" offset="0%"></stop>
            <stop stop-color="#F7B500" offset="100%"></stop>
        </linearGradient>
    </defs>
    <g id="Page-2" stroke="none" stroke-width="1" fill="none" fill-rule="evenodd">
        <g id="Cabane.io-Copy-17">
            <g id="Group-3" transform="translate(-1760.000000, -720.507614)">
                <path d="M1521.49029,1920.27283 C1504.65097,1972.86955 1532.53883,1998.80491 1583.77873,1978.20141 L3630.23531,1155.32386 C3681.47559,1134.72021 3736.25749,1075.2479 3752.59207,1022.49537 L3983.42197,277.029898 C3999.75747,224.274397 3971.45941,198.211033 3920.21946,218.814549 L1885.0677,1037.14644 C1833.82642,1057.75049 1778.63282,1117.10196 1761.79687,1169.68816 L1521.49029,1920.27283 Z" id="Path-3-Copy" fill="url(#linearGradient-1)"></path>
                <path d="M1778.25615,1405.00395 C1821.59165,1439.24342 1901.50135,1467 1956.72258,1467 L3581.99943,1467 C3637.22822,1467 3647.10458,1438.95409 3604.05377,1404.35359 L1934.66825,62.6464132 C1891.61973,28.0477546 1811.94535,0 1756.72189,0 L100.000122,0 C44.7715799,0 35.1259468,27.753085 78.4658692,61.9960496 L1778.25615,1405.00395 Z" id="Path-2-Copy" fill="url(#linearGradient-2)"></path>
                <path d="M3422.85924,336.156695 C3388.05216,293.272292 3331.86546,293.472831 3297.37202,336.592991 L2483.46343,1354.05816 C2448.96583,1397.18353 2448.64879,1467.35516 2482.75255,1510.7874 L2822.02656,1942.86376 C2856.13156,1986.29756 2912.1278,1986.85704 2947.1009,1944.10945 L3304.10623,1507.7421 C3339.07788,1464.99628 3394.75582,1465.8002 3428.47832,1509.55321 L3762.0153,1942.29834 C3795.73245,1986.04441 3851.70393,1987.09937 3887.03739,1944.64707 L4249.02822,1509.72392 C4284.35886,1467.27502 4284.78065,1398.09545 4249.97621,1355.2143 L3422.85924,336.156695 Z" id="Path-1-Copy" fill="url(#linearGradient-3)"></path>
            </g>
        </g>
    </g>
</svg>