<?xml version="1.0" encoding="UTF-8"?>
<svg width="110px" height="75px" viewBox="0 0 110 75" version="1.1" xmlns="http://www.w3.org/2000/svg" xmlns:xlink="http://www.w3.org/1999/xlink">
    <!-- Generator: Sketch 55.2 (78181) - https://sketchapp.com -->
    <title>Group</title>
    <desc>Created with Sketch.</desc>
    <defs>
        <linearGradient x1="8.64085591%" y1="38.1796023%" x2="60.1521937%" y2="51.9682798%" id="linearGradient-1">
            <stop stop-color="#6236FF" offset="0%"></stop>
            <stop stop-color="#487BFA" offset="100%"></stop>
        </linearGradient>
        <linearGradient x1="70.8117937%" y1="130.939959%" x2="11.1309221%" y2="17.816182%" id="linearGradient-2">
            <stop stop-color="#FA6400" offset="0%"></stop>
            <stop stop-color="#E02020" offset="100%"></stop>
        </linearGradient>
        <linearGradient x1="8.64085591%" y1="-23.222256%" x2="60.1521937%" y2="62.192643%" id="linearGradient-3">
            <stop stop-color="#FA6400" offset="0%"></stop>
            <stop stop-color="#F7B500" offset="100%"></stop>
        </linearGradient>
    </defs>
    <g id="Page-2" stroke="none" stroke-width="1" fill="none" fill-rule="evenodd">
        <g id="Cabane.io-Copy-17" transform="translate(-179.000000, -163.000000)">
            <g id="Group" transform="translate(178.000000, 163.000000)">
                <path d="M19.6432118,71.9752579 C18.2948494,73.6457768 18.9305988,75 21.083796,75 L81.8707542,75 C84.0147293,75 86.8258599,73.6432903 88.1631462,71.9525652 L100.291404,56.6188633 C101.622621,54.9358116 100.964552,53.5714286 98.8146906,53.5714286 L38.3849913,53.5714286 C36.238208,53.5714286 33.4028256,54.9281382 32.0564701,56.5961707 L19.6432118,71.9752579 Z" id="Path-3" fill="url(#linearGradient-1)"></path>
                <path d="M36.9473495,3.00415235 C35.5955228,1.34500482 33.4135025,1.35258686 32.0751324,3.01926715 L2.83166115,39.436337 C1.49263667,41.1038322 1.48394705,43.8216925 2.8149157,45.5102269 L14.804552,60.7208875 C16.1343282,62.407909 18.3109716,62.4377823 19.6728831,60.7794996 L32.3148058,45.3865151 C33.6737346,43.7318641 35.8355512,43.7607642 37.1459806,45.4544544 L48.9505951,60.7115603 C50.2598504,62.4037331 52.4341364,62.4434835 53.8137473,60.7922681 L66.6199643,45.4648861 C67.9965538,43.817287 68.0194389,41.1400892 66.6648011,39.4774917 L36.9473495,3.00415235 Z" id="Path-1" fill="url(#linearGradient-2)"></path>
                <path d="M77.4026625,39.8435118 C78.7481622,41.5078943 81.5747363,42.8571429 83.7127811,42.8571429 L106.127012,42.8571429 C110.418929,42.8571429 111.741813,40.1437235 109.072564,36.7849821 L84.6645559,6.07216074 C81.9994227,2.71859896 76.3582805,0 72.0852268,0 L52.9465356,0 C48.6642972,0 47.3732473,2.69714149 50.0741512,6.03815809 L77.4026625,39.8435118 Z" id="Path-2" fill="url(#linearGradient-3)"></path>
            </g>
        </g>
    </g>
</svg>