<?xml version="1.0" encoding="UTF-8" standalone="no"?>
<svg id="svg2" xmlns:rdf="http://www.w3.org/1999/02/22-rdf-syntax-ns#" xmlns="http://www.w3.org/2000/svg" height="232.27mm" width="289mm" version="1.1" xmlns:cc="http://creativecommons.org/ns#" xmlns:dc="http://purl.org/dc/elements/1.1/" viewBox="0 0 1023.9999 822.99995">
 <metadata id="metadata7">
  <rdf:RDF>
   <cc:Work rdf:about="">
    <dc:format>image/svg+xml</dc:format>
    <dc:type rdf:resource="http://purl.org/dc/dcmitype/StillImage"/>
    <dc:title/>
   </cc:Work>
  </rdf:RDF>
 </metadata>
 <g id="layer1" transform="translate(1668.2 -897)">
  <path id="path4178" fill="#203c57" d="m-1668.2 897v411.5 411.5h512 512v-411.5-411.5h-512-512z"/>
  <g fill="#fff">
   <path id="path4228" d="m-1268.1 1238.6c-6.5742 0.065-12.806 0.6429-16.949 1.7559-19.518 5.2431-35.62 18.099-44.238 35.318-6.3012 12.59-8.1294 21.388-7.5176 36.15 0.3679 8.8766 1.1047 13.576 3.0899 19.682 7.7574 23.858 27.809 41.247 53.152 46.092 8.342 1.5946 24.537 1.0337 33.146-1.1464 9.8478-2.4938 21.443-8.8148 28.801-15.699l6.6973-6.2656-9.4825-9.3984-9.4824-9.3965-6.332 4.793c-3.4832 2.6359-8.809 5.9625-11.834 7.3925-4.8819 2.3079-6.7362 2.5995-16.5 2.6036-9.8469 0-11.6-0.2766-16.719-2.6758-14.609-6.8472-23.781-22.012-23.781-39.318 0-17.307 9.1723-32.473 23.781-39.32 5.0665-2.3747 6.9153-2.6791 16.219-2.6758 12.289 0 17.261 1.7465 27.865 9.7715l6.3633 4.8164 3.6367-4.2617c1.9996-2.3437 6.2289-7.2006 9.4004-10.795l5.7676-6.5352-4.8652-4.5469c-6.2309-5.8232-16.951-11.445-26.867-14.09-5.8798-1.5681-14.899-2.3335-23.352-2.25z"/>
   <path id="path4226" d="m-1007 1240.9c-28.834 0-35.628 0.2666-39.234 1.539-5.1601 1.8206-9.3479 5.5502-11.982 10.672-1.815 3.5285-1.9082 6.6253-1.9082 63.25v59.539h15.445 15.445l0.3047-46.248 0.3047-46.25 2.5-5c4.7303-9.4579 9.5146-10.864 37.25-10.949l16.75-0.053v-13.25-13.25z"/>
   <path id="path4224" d="m-1449.9 1240.9-2.166 5.75c-1.1906 3.1625-8.9242 23.975-17.188 46.25-8.2633 22.275-15.31 41.025-15.658 41.668-0.3481 0.6432-8.5102-20.057-18.139-46l-17.506-47.168-16.244-0.2754c-8.934-0.1511-16.244 0.1091-16.244 0.5782s11.743 30.068 26.096 65.775c14.352 35.707 26.49 65.934 26.975 67.172 0.8517 2.1772 1.3133 2.25 14.242 2.25h13.361l26.789-66.75c14.734-36.712 27.005-67.312 27.27-68 0.3724-0.968-3.1348-1.25-15.553-1.25z"/>
   <path id="path4222" d="m-1395.1 1240.9v67.5 67.5h15 15v-67.5-67.5h-15z"/>
   <path id="path4220" d="m-1198.1 1240.9v13.5 13.5h21 21v54 54h15 15v-54-54h20.5 20.5v-13.5-13.5h-56.5z"/>
   <path id="path4218" d="m-947.09 1240.9v67.5 67.5h15 15v-67.5-67.5h-15z"/>
  </g>
  <path id="path4216" fill="#a9b3b6" d="m-890.32 1240.9 2.457 3.25c2.5003 3.3072 39.508 54.618 43.592 60.44l2.2383 3.1894-24.16 33.311c-13.287 18.321-24.603 33.873-25.146 34.56-0.7826 0.9893 2.4322 1.25 15.42 1.25h16.408l24.465-33.68c13.455-18.524 24.816-34.26 25.246-34.969 0.5137-0.8465-7.3791-12.617-23-34.303l-23.783-33.016-16.869-0.016z"/>
  <path id="path4214" fill="#fff" d="m-793.84 1240.9-11.623 16.002c-6.3928 8.8009-11.736 16.416-11.873 16.924-0.2203 0.8152 15.064 23.074 15.844 23.074 0.1697 0 9.0258-12.038 19.682-26.75s19.706-27.312 20.109-28c0.5749-0.9791-2.8292-1.25-15.703-1.25z"/>
  <path id="path4187" fill="#fff" d="m-801.45 1317-8.293 11.209c-4.5606 6.1652-8.19 11.768-8.0664 12.451 0.1237 0.683 5.8496 9.1015 12.725 18.707l12.5 17.465 17.197 0.045 17.197 0.043-21.631-29.961z"/>
 </g>
</svg>
